<?xml version="1.0" encoding="utf-8"?>
<!DOCTYPE svg PUBLIC "-//W3C//DTD SVG 1.1//EN" "http://www.w3.org/Graphics/SVG/1.1/DTD/svg11.dtd">
<svg version="1.1" xmlns="http://www.w3.org/2000/svg" xmlns:xlink="http://www.w3.org/1999/xlink" x="0px" y="0px" viewBox="0 0 1000 1000" enable-background="new 0 0 1000 1000" xml:space="preserve">
<g><path d="M959.3,223.8L360.1,213c-17.7-0.9-32.7,13.1-33.4,30.9c-0.8,17.9,13,33,30.7,33.7l557.3,8.9L790.5,606.4H284.6l-91.4-502.3c-2-11-9.5-20.2-19.8-24.3L53.8,34.4C37.3,27.8,18.7,36,12.2,52.6c-6.5,16.7,1.6,35.5,18.1,42l102.9,38.8l93,511.1c2.8,15.3,16.1,26.5,31.6,26.5h15.4l-35.2,98.8c-3,8.3-1.8,17.5,3.2,24.7c5,7.2,13.2,11.4,21.9,11.4h24.7c-15.3,17.2-24.7,39.9-24.7,64.8c0,53.5,43.2,97.1,96.2,97.1c53.1,0,96.2-43.6,96.2-97.1c0-24.9-9.4-47.5-24.7-64.8h209.8c-15.3,17.2-24.7,39.9-24.7,64.8c0,53.5,43.2,97.1,96.2,97.1c53,0,96.2-43.6,96.2-97.1c0-24.9-9.4-47.5-24.7-64.8h30.1c14.7,0,26.7-12.1,26.7-27c0-14.9-11.9-27-26.7-27H301.2l28.9-80.9h483.8c14,0,26.3-9.1,30.5-22.5L988.5,266c3.1-9.6,1.5-20.1-4.2-28.4C978.5,229.3,969.3,224.2,959.3,223.8L959.3,223.8z M712.3,827.6c23.6,0,42.7,19.4,42.7,43.1c0,23.8-19.2,43.2-42.7,43.2c-23.6,0-42.8-19.3-42.8-43.2C669.5,847,688.7,827.6,712.3,827.6L712.3,827.6z M359.4,827.6c23.6,0,42.8,19.4,42.8,43.1c0,23.8-19.2,43.2-42.8,43.2c-23.5,0-42.7-19.3-42.7-43.2C316.7,847,335.9,827.6,359.4,827.6L359.4,827.6z"/></g>
</svg>